<svg width="30" height="30" viewBox="0 0 30 30" fill="none" xmlns="http://www.w3.org/2000/svg">
<mask id="path-2-inside-1" fill="white">
<path fill-rule="evenodd" clip-rule="evenodd" d="M2.91668 0H27.0833L30 8.85288e-06V2.91667V27.0833V30H27.0833H2.91668H0.000100333L1.3011e-05 27.0833V2.91667L0 1.91812e-05L2.91668 0ZM22.2713 22.8686L25.4414 6.96203C25.7218 5.56881 24.9654 5.01152 24.1006 5.34324L5.47869 12.99C4.20142 13.5208 4.2251 14.2758 5.26062 14.6234L10.027 16.2077L21.0862 8.79444C21.6009 8.42955 22.0769 8.63654 21.6869 9.00143L12.7385 17.6102L12.3959 22.8434C12.8943 22.8434 13.1124 22.6112 13.3691 22.3379L15.6981 19.9495L20.5267 23.739C21.4065 24.2698 22.037 23.9965 22.2713 22.8686Z"/>
</mask>
<path fill-rule="evenodd" clip-rule="evenodd" d="M2.91668 0H27.0833L30 8.85288e-06V2.91667V27.0833V30H27.0833H2.91668H0.000100333L1.3011e-05 27.0833V2.91667L0 1.91812e-05L2.91668 0ZM22.2713 22.8686L25.4414 6.96203C25.7218 5.56881 24.9654 5.01152 24.1006 5.34324L5.47869 12.99C4.20142 13.5208 4.2251 14.2758 5.26062 14.6234L10.027 16.2077L21.0862 8.79444C21.6009 8.42955 22.0769 8.63654 21.6869 9.00143L12.7385 17.6102L12.3959 22.8434C12.8943 22.8434 13.1124 22.6112 13.3691 22.3379L15.6981 19.9495L20.5267 23.739C21.4065 24.2698 22.037 23.9965 22.2713 22.8686Z" fill="white"/>
<path d="M27.0833 0L27.0833 -0.5H27.0833V0ZM2.91668 0V-0.5H2.91668L2.91668 0ZM30 8.85288e-06H30.5V-0.49999L30 -0.499991L30 8.85288e-06ZM30 30V30.5H30.5V30H30ZM0.000100333 30L-0.4999 30L-0.499885 30.5H0.000100333V30ZM1.3011e-05 27.0833H-0.499987V27.0833L1.3011e-05 27.0833ZM1.3011e-05 2.91667H0.500013V2.91666L1.3011e-05 2.91667ZM0 1.91812e-05L-3.2882e-06 -0.499981L-0.500002 -0.499978L-0.5 2.14117e-05L0 1.91812e-05ZM25.4414 6.96203L24.9512 6.86338L24.9511 6.8643L25.4414 6.96203ZM22.2713 22.8686L22.7609 22.9703L22.7617 22.9663L22.2713 22.8686ZM24.1006 5.34324L23.9215 4.87628L23.9107 4.88072L24.1006 5.34324ZM5.47869 12.99L5.28876 12.5275L5.28682 12.5283L5.47869 12.99ZM5.26062 14.6234L5.10149 15.0974L5.10291 15.0979L5.26062 14.6234ZM10.027 16.2077L9.86929 16.6822L10.1018 16.7595L10.3054 16.623L10.027 16.2077ZM21.0862 8.79444L21.3647 9.20991L21.3754 9.20232L21.0862 8.79444ZM21.6869 9.00143L21.3453 8.63627L21.3402 8.64111L21.6869 9.00143ZM12.7385 17.6102L12.3919 17.2499L12.2523 17.3842L12.2396 17.5775L12.7385 17.6102ZM12.3959 22.8434L11.8969 22.8107L11.862 23.3434H12.3959V22.8434ZM13.3691 22.3379L13.011 21.9887L13.0046 21.9956L13.3691 22.3379ZM15.6981 19.9495L16.0067 19.5561L15.6535 19.279L15.3401 19.6004L15.6981 19.9495ZM20.5267 23.739L20.2181 24.1324L20.2422 24.1513L20.2685 24.1672L20.5267 23.739ZM27.0833 -0.5H2.91668V0.5H27.0833V-0.5ZM30 -0.499991L27.0833 -0.5L27.0833 0.5L30 0.500009L30 -0.499991ZM30.5 2.91667V8.85288e-06H29.5V2.91667H30.5ZM30.5 27.0833V2.91667H29.5V27.0833H30.5ZM30.5 30V27.0833H29.5V30H30.5ZM27.0833 30.5H30V29.5H27.0833V30.5ZM2.91668 30.5H27.0833V29.5H2.91668V30.5ZM0.000100333 30.5H2.91668V29.5H0.000100333V30.5ZM-0.499987 27.0833L-0.4999 30L0.5001 30L0.500013 27.0833L-0.499987 27.0833ZM-0.499987 2.91667V27.0833H0.500013V2.91667H-0.499987ZM-0.5 2.14117e-05L-0.499987 2.91667L0.500013 2.91666L0.5 1.69508e-05L-0.5 2.14117e-05ZM2.91668 -0.5L-3.2882e-06 -0.499981L3.2882e-06 0.500019L2.91668 0.5L2.91668 -0.5ZM24.9511 6.8643L21.7809 22.7709L22.7617 22.9663L25.9318 7.05975L24.9511 6.8643ZM24.2797 5.81008C24.5832 5.69366 24.7565 5.76568 24.8404 5.85275C24.9411 5.95718 25.0755 6.24604 24.9512 6.86339L25.9316 7.06067C26.0877 6.2848 25.9841 5.5984 25.5605 5.15881C25.1201 4.70187 24.4828 4.66111 23.9215 4.87641L24.2797 5.81008ZM5.66861 13.4525L24.2905 5.80576L23.9107 4.88072L5.28876 12.5275L5.66861 13.4525ZM5.41975 14.1494C5.20561 14.0775 5.0872 13.9981 5.03188 13.9427C4.98369 13.8945 5.00296 13.8883 5.00071 13.9159C4.99951 13.9307 4.99684 13.8835 5.10177 13.7854C5.20553 13.6883 5.38601 13.57 5.67055 13.4517L5.28682 12.5283C4.93273 12.6754 4.6372 12.8506 4.41853 13.0552C4.20103 13.2587 4.02951 13.5215 4.00401 13.8348C3.97745 14.161 4.11698 14.4419 4.32455 14.6496C4.525 14.8502 4.79786 14.9955 5.10149 15.0974L5.41975 14.1494ZM10.1847 15.7332L5.41833 14.1489L5.10291 15.0979L9.86929 16.6822L10.1847 15.7332ZM20.8078 8.37912L9.7486 15.7924L10.3054 16.623L21.3646 9.20977L20.8078 8.37912ZM22.0285 9.36656C22.1619 9.2417 22.3209 9.04297 22.3297 8.7806C22.3407 8.45194 22.1195 8.23996 21.9053 8.15758C21.7132 8.08372 21.5078 8.0946 21.3371 8.13493C21.157 8.17748 20.9724 8.26223 20.7971 8.38656L21.3754 9.20232C21.4574 9.1442 21.5253 9.118 21.567 9.10813C21.6181 9.09606 21.6039 9.11307 21.5464 9.09096C21.5139 9.07848 21.4562 9.04818 21.4059 8.98202C21.3517 8.91069 21.3276 8.82539 21.3302 8.74708C21.3347 8.61474 21.4068 8.57872 21.3453 8.63631L22.0285 9.36656ZM13.0852 17.9705L22.0335 9.36176L21.3402 8.64111L12.3919 17.2499L13.0852 17.9705ZM12.8948 22.8761L13.2375 17.6429L12.2396 17.5775L11.8969 22.8107L12.8948 22.8761ZM13.0046 21.9956C12.8678 22.1412 12.7931 22.2165 12.7099 22.268C12.645 22.3082 12.558 22.3434 12.3959 22.3434V23.3434C12.7321 23.3434 13.0035 23.2625 13.2364 23.1182C13.451 22.9853 13.6136 22.8078 13.7335 22.6801L13.0046 21.9956ZM15.3401 19.6004L13.0111 21.9888L13.727 22.6869L16.056 20.2986L15.3401 19.6004ZM20.8354 23.3457L16.0067 19.5561L15.3894 20.3428L20.2181 24.1324L20.8354 23.3457ZM21.7817 22.7669C21.6756 23.278 21.5094 23.4342 21.4241 23.4753C21.3518 23.5101 21.1665 23.5411 20.785 23.3109L20.2685 24.1672C20.7667 24.4678 21.3366 24.6274 21.858 24.3763C22.3665 24.1314 22.6327 23.587 22.7609 22.9703L21.7817 22.7669Z" fill="white" mask="url(#path-2-inside-1)"/>
</svg>
