<svg width="30" height="30" viewBox="0 0 30 30" fill="none" xmlns="http://www.w3.org/2000/svg">
<path fill-rule="evenodd" clip-rule="evenodd" d="M30 0H0V30H30V0ZM20.015 3.26914C19.9772 3.25906 19.9578 3.19227 19.9578 3.07284V3H18.2077H16.4577V10.4906C16.4577 17.9687 16.4577 17.9812 16.4209 17.9812C16.3844 17.9812 16.384 17.9937 16.384 19.3974C16.384 20.1764 16.3786 20.9038 16.372 21.014C16.3613 21.1918 16.3562 21.2143 16.326 21.2143C16.2968 21.2143 16.2919 21.2298 16.2917 21.3224C16.2914 21.4963 16.274 21.5714 16.2342 21.5714C16.2039 21.5714 16.1998 21.587 16.1998 21.703C16.1998 21.8308 16.1985 21.8346 16.1538 21.8346C16.1108 21.8346 16.1077 21.8408 16.1077 21.9286C16.1077 22.009 16.1026 22.0226 16.072 22.0226C16.0438 22.0226 16.0337 22.0403 16.0238 22.1071C16.0145 22.1708 16.0033 22.1917 15.9788 22.1917C15.9542 22.1917 15.943 22.2127 15.9337 22.2763C15.9238 22.3431 15.9137 22.3609 15.8855 22.3609C15.86 22.3609 15.8498 22.3739 15.8498 22.4066C15.8498 22.4397 15.8384 22.4539 15.8084 22.4583C15.774 22.4633 15.7659 22.4778 15.7613 22.543C15.7567 22.6076 15.7484 22.6228 15.7153 22.6276C15.6896 22.6313 15.6726 22.6489 15.6689 22.6758C15.6651 22.7029 15.6503 22.718 15.6275 22.718C15.6018 22.718 15.5919 22.7311 15.5919 22.765C15.5919 22.8026 15.5827 22.812 15.5459 22.812C15.509 22.812 15.4998 22.8214 15.4998 22.859C15.4998 22.8929 15.4899 22.906 15.4642 22.906C15.4414 22.906 15.4266 22.9211 15.4228 22.9483C15.4191 22.9751 15.4021 22.9927 15.3766 22.9964C15.3515 23.0001 15.3341 23.0178 15.3305 23.0434C15.3269 23.0691 15.3096 23.0868 15.2845 23.0904C15.2594 23.0941 15.242 23.1118 15.2384 23.1374C15.2348 23.1635 15.2175 23.1808 15.1912 23.1846C15.1646 23.1884 15.1498 23.2036 15.1498 23.2269C15.1498 23.253 15.137 23.2632 15.1037 23.2632C15.0669 23.2632 15.0577 23.2726 15.0577 23.3102C15.0577 23.3477 15.0485 23.3571 15.0116 23.3571C14.9784 23.3571 14.9656 23.3673 14.9656 23.3934C14.9656 23.4167 14.9508 23.4319 14.9241 23.4357C14.8979 23.4395 14.8806 23.4568 14.8769 23.483C14.8722 23.5169 14.8573 23.5253 14.794 23.53C14.7301 23.5347 14.7159 23.543 14.711 23.578C14.7067 23.6086 14.6928 23.6203 14.6603 23.6203C14.6283 23.6203 14.6156 23.6307 14.6156 23.6567C14.6156 23.6855 14.5981 23.6958 14.5327 23.7059C14.4703 23.7154 14.4498 23.7268 14.4498 23.7519C14.4498 23.777 14.4293 23.7883 14.3669 23.7979C14.3014 23.8079 14.284 23.8182 14.284 23.847C14.284 23.8782 14.2707 23.8835 14.1919 23.8835C14.1059 23.8835 14.0998 23.8866 14.0998 23.9305C14.0998 23.9743 14.0936 23.9774 14.0077 23.9774C13.9299 23.9774 13.9156 23.9829 13.9156 24.0127C13.9156 24.0515 13.8524 24.0714 13.729 24.0714C13.6711 24.0714 13.6577 24.0782 13.6577 24.1073C13.6577 24.1391 13.6379 24.1446 13.4827 24.1565C13.3283 24.1683 13.3076 24.174 13.3076 24.2052C13.3076 24.237 13.2921 24.2406 13.1539 24.2406C13.0694 24.2406 12.9119 24.2461 12.8039 24.2529C12.6296 24.2637 12.6076 24.269 12.6076 24.2999C12.6076 24.3303 12.5918 24.3346 12.4787 24.3346C12.3656 24.3346 12.3497 24.3303 12.3497 24.2999C12.3497 24.269 12.3277 24.2637 12.1534 24.2529C12.0455 24.2461 11.888 24.2406 11.8034 24.2406C11.6653 24.2406 11.6497 24.237 11.6497 24.2052C11.6497 24.174 11.6291 24.1683 11.4747 24.1565C11.3194 24.1446 11.2997 24.1391 11.2997 24.1073C11.2997 24.0782 11.2863 24.0714 11.2283 24.0714C11.105 24.0714 11.0418 24.0515 11.0418 24.0127C11.0418 23.9829 11.0275 23.9774 10.9497 23.9774C10.8637 23.9774 10.8576 23.9743 10.8576 23.9305C10.8576 23.8873 10.8508 23.8835 10.7747 23.8835C10.7058 23.8835 10.6918 23.8775 10.6918 23.848C10.6918 23.8204 10.6735 23.8097 10.6089 23.7998C10.5458 23.7902 10.526 23.7791 10.526 23.7532C10.526 23.7265 10.506 23.7164 10.4339 23.7067C10.3588 23.6965 10.3418 23.6874 10.3418 23.6573C10.3418 23.6304 10.3293 23.6203 10.2957 23.6203C10.2589 23.6203 10.2497 23.6109 10.2497 23.5733C10.2497 23.5357 10.2405 23.5263 10.2036 23.5263C10.1704 23.5263 10.1576 23.5162 10.1576 23.4899C10.1576 23.4611 10.1402 23.4508 10.0747 23.4408C10.0114 23.4311 9.9918 23.42 9.9918 23.3939C9.9918 23.3728 9.97597 23.3575 9.95035 23.3538C9.92371 23.3499 9.9068 23.3326 9.903 23.3055C9.89932 23.2789 9.88436 23.2632 9.86285 23.2632C9.84133 23.2632 9.82637 23.2474 9.82269 23.2209C9.81895 23.1941 9.80198 23.1764 9.77647 23.1727C9.75136 23.1691 9.73401 23.1514 9.73041 23.1257C9.72679 23.0997 9.70947 23.0824 9.68324 23.0786C9.65721 23.0748 9.64179 23.0595 9.64179 23.0376C9.64179 23.0156 9.62637 23.0004 9.60034 22.9966C9.5737 22.9927 9.55679 22.9755 9.553 22.9483C9.54937 22.9222 9.53434 22.906 9.51365 22.906C9.4881 22.906 9.47723 22.886 9.46774 22.8214C9.45793 22.7546 9.44781 22.7368 9.41961 22.7368C9.39378 22.7368 9.38389 22.7238 9.38389 22.6898C9.38389 22.6523 9.37468 22.6429 9.33784 22.6429C9.29565 22.6429 9.29178 22.6359 9.29178 22.5596C9.29178 22.4875 9.2862 22.4755 9.25033 22.4703C9.22066 22.466 9.20723 22.4496 9.20307 22.4126C9.19901 22.3767 9.18667 22.3609 9.16274 22.3609C9.13597 22.3609 9.12545 22.3419 9.11582 22.2763C9.10628 22.2115 9.0955 22.1917 9.06964 22.1917C9.04247 22.1917 9.0348 22.1744 9.03029 22.1024C9.0255 22.0263 9.01859 22.0123 8.98322 22.0071C8.94979 22.0023 8.94178 21.9891 8.94178 21.939C8.94178 21.83 8.92116 21.7632 8.88454 21.7534C8.85477 21.7455 8.84967 21.726 8.84967 21.6202C8.84967 21.5117 8.84538 21.4962 8.81524 21.4962C8.77484 21.4962 8.75808 21.4209 8.75776 21.2378C8.75758 21.1355 8.75309 21.1203 8.72304 21.1203C8.6909 21.1203 8.68795 21.0973 8.68025 20.7867C8.6757 20.6031 8.67577 20.2817 8.68041 20.0724C8.68832 19.7165 8.6911 19.6917 8.72321 19.6917C8.75272 19.6917 8.7576 19.6765 8.75776 19.5836C8.7581 19.4097 8.77543 19.3346 8.81524 19.3346C8.84556 19.3346 8.84967 19.319 8.84967 19.2043C8.84967 19.0835 8.85269 19.0736 8.89112 19.068C8.92873 19.0626 8.93306 19.0504 8.93798 18.9364C8.94286 18.8231 8.94741 18.8101 8.98404 18.8048C9.01845 18.7998 9.02554 18.7852 9.03029 18.7096C9.0348 18.6376 9.04247 18.6203 9.06964 18.6203C9.0955 18.6203 9.10628 18.6006 9.11582 18.5357C9.12564 18.4689 9.13575 18.4511 9.16396 18.4511C9.18978 18.4511 9.19968 18.4381 9.19968 18.4041C9.19968 18.3665 9.20889 18.3571 9.24573 18.3571C9.28791 18.3571 9.29178 18.3502 9.29178 18.2739C9.29178 18.2018 9.29736 18.1898 9.33323 18.1846C9.35987 18.1807 9.37678 18.1635 9.38057 18.1363C9.38435 18.1091 9.39916 18.094 9.42202 18.094C9.44766 18.094 9.45758 18.0809 9.45758 18.047C9.45758 18.01 9.46693 18 9.50153 18C9.53951 18 9.5472 17.9885 9.55793 17.9154C9.56775 17.8486 9.57787 17.8308 9.60607 17.8308C9.6319 17.8308 9.64179 17.8178 9.64179 17.7838C9.64179 17.7462 9.651 17.7368 9.68784 17.7368C9.72469 17.7368 9.7339 17.7274 9.7339 17.6898C9.7339 17.6523 9.74311 17.6429 9.77995 17.6429C9.81679 17.6429 9.826 17.6335 9.826 17.5959C9.826 17.5583 9.83521 17.5489 9.87206 17.5489C9.90512 17.5489 9.91811 17.5387 9.91811 17.5129C9.91811 17.4856 9.93587 17.4739 9.9918 17.4643C10.0477 17.4546 10.0655 17.4429 10.0655 17.4156C10.0655 17.3898 10.0785 17.3797 10.1115 17.3797C10.1484 17.3797 10.1576 17.3703 10.1576 17.3327C10.1576 17.2955 10.1669 17.2857 10.2024 17.2857C10.2348 17.2857 10.2488 17.274 10.253 17.2434C10.2579 17.2083 10.2721 17.2001 10.3372 17.1954C10.3995 17.1908 10.4155 17.1823 10.4155 17.1543C10.4155 17.1298 10.431 17.1172 10.4661 17.1131C10.5024 17.1088 10.5185 17.0951 10.5227 17.0648C10.5278 17.0282 10.5396 17.0226 10.6102 17.0226C10.685 17.0226 10.6918 17.0186 10.6918 16.9756C10.6918 16.9317 10.6979 16.9286 10.7839 16.9286C10.8617 16.9286 10.876 16.9231 10.876 16.8933C10.876 16.8554 10.939 16.8346 11.0533 16.8346C11.1024 16.8346 11.1155 16.827 11.1155 16.7983C11.1155 16.7685 11.1334 16.7598 11.2168 16.7492C11.2993 16.7387 11.3181 16.7297 11.3181 16.7008C11.3181 16.6688 11.3338 16.6654 11.4839 16.6654C11.6485 16.6654 11.6497 16.6651 11.6497 16.6184V16.5714H12.2669H12.8841L12.8794 14.6964L12.8747 12.8214L12.6076 12.8154C12.4607 12.812 12.1478 12.8151 11.9122 12.8222C11.5091 12.8343 11.4839 12.8371 11.4839 12.8705C11.4839 12.9031 11.4677 12.906 11.2859 12.9062C11.0243 12.9065 10.9497 12.9195 10.9497 12.9649C10.9497 12.9967 10.9334 13 10.7747 13C10.6161 13 10.5997 13.0033 10.5997 13.0351C10.5997 13.0758 10.5261 13.0934 10.3556 13.0938C10.2645 13.0939 10.2497 13.0989 10.2497 13.1291C10.2497 13.1659 10.1774 13.1873 10.0517 13.1878C10.0041 13.1879 9.9918 13.1957 9.9918 13.2256C9.9918 13.2581 9.97951 13.2632 9.89969 13.2632C9.81372 13.2632 9.80758 13.2663 9.80758 13.3101C9.80758 13.3558 9.8039 13.3571 9.67863 13.3571C9.55337 13.3571 9.54968 13.3585 9.54968 13.4041C9.54968 13.448 9.54355 13.4511 9.45758 13.4511C9.3796 13.4511 9.36547 13.4566 9.36547 13.4866C9.36547 13.5142 9.34714 13.5248 9.28257 13.5347C9.21806 13.5446 9.19968 13.5553 9.19968 13.5828C9.19968 13.6117 9.18361 13.6193 9.11217 13.624C9.03751 13.6289 9.02381 13.6359 9.01878 13.672C9.01369 13.7086 9.0019 13.7143 8.93128 13.7143C8.8628 13.7143 8.84967 13.7201 8.84967 13.7507C8.84967 13.7795 8.83224 13.7898 8.76677 13.7998C8.70397 13.8095 8.68388 13.8207 8.68388 13.8462C8.68388 13.8724 8.66334 13.8828 8.59177 13.8929C8.51928 13.903 8.49966 13.9131 8.49966 13.9403C8.49966 13.9618 8.48402 13.9771 8.45821 13.9808C8.43158 13.9847 8.41467 14.002 8.41087 14.0291C8.40579 14.0657 8.394 14.0714 8.32337 14.0714C8.2486 14.0714 8.24176 14.0754 8.24176 14.1184C8.24176 14.156 8.23255 14.1654 8.19571 14.1654C8.16242 14.1654 8.14966 14.1755 8.14966 14.2019C8.14966 14.2306 8.13223 14.241 8.06676 14.251C8.00219 14.2609 7.98386 14.2715 7.98386 14.2991C7.98386 14.3244 7.97065 14.3346 7.93781 14.3346C7.90097 14.3346 7.89176 14.344 7.89176 14.3816C7.89176 14.4192 7.88254 14.4286 7.8457 14.4286C7.80886 14.4286 7.79965 14.438 7.79965 14.4756C7.79965 14.5132 7.79044 14.5226 7.75359 14.5226C7.72038 14.5226 7.70754 14.5327 7.70754 14.5588C7.70754 14.5822 7.69273 14.5973 7.66609 14.6011C7.63997 14.6049 7.62254 14.6222 7.61895 14.648C7.61457 14.6793 7.59639 14.6917 7.54066 14.7013C7.48573 14.7108 7.46806 14.7226 7.46806 14.7498C7.46806 14.7753 7.45509 14.7857 7.4233 14.7857C7.39088 14.7857 7.3769 14.7974 7.37264 14.828C7.3689 14.8548 7.35193 14.8724 7.32642 14.8761C7.30131 14.8798 7.28396 14.8975 7.28037 14.9231C7.27674 14.9492 7.25942 14.9665 7.23319 14.9703C7.20716 14.9741 7.19174 14.9893 7.19174 15.0113C7.19174 15.0332 7.17632 15.0485 7.15029 15.0523C7.12366 15.0561 7.10675 15.0734 7.10295 15.1006C7.09927 15.1271 7.08431 15.1429 7.06279 15.1429C7.04128 15.1429 7.02632 15.1586 7.02263 15.1852C7.01884 15.2123 7.00193 15.2296 6.97529 15.2335C6.94528 15.2378 6.93384 15.2521 6.93384 15.2851C6.93384 15.3213 6.92428 15.3308 6.88779 15.3308C6.84549 15.3308 6.84174 15.3377 6.84174 15.4154C6.84174 15.4931 6.83798 15.5 6.79568 15.5C6.76247 15.5 6.74963 15.5101 6.74963 15.5363C6.74963 15.5596 6.73482 15.5747 6.70818 15.5786C6.68154 15.5824 6.66463 15.5997 6.66084 15.6269C6.65706 15.6541 6.64225 15.6692 6.61939 15.6692C6.59375 15.6692 6.58384 15.6823 6.58384 15.7162C6.58384 15.7538 6.57462 15.7632 6.53778 15.7632C6.4956 15.7632 6.49173 15.7701 6.49173 15.8464C6.49173 15.9185 6.48615 15.9305 6.45028 15.9357C6.42364 15.9396 6.40673 15.9568 6.40294 15.984C6.39925 16.0106 6.38431 16.0263 6.36272 16.0263C6.33896 16.0263 6.32658 16.0422 6.32255 16.078C6.31844 16.1146 6.3049 16.1314 6.27627 16.1356C6.24309 16.1404 6.23482 16.1556 6.23022 16.2201C6.22558 16.2854 6.21751 16.2999 6.18317 16.3049C6.15316 16.3092 6.14172 16.3235 6.14172 16.3566C6.14172 16.3892 6.13155 16.4023 6.106 16.4023C6.0778 16.4023 6.06769 16.42 6.05787 16.4868C6.04851 16.5505 6.03736 16.5714 6.01277 16.5714C5.98818 16.5714 5.97703 16.5923 5.96768 16.656C5.95821 16.7204 5.9473 16.7406 5.92192 16.7406C5.89581 16.7406 5.88592 16.761 5.87634 16.8346C5.86638 16.9113 5.85746 16.9286 5.82793 16.9286C5.79737 16.9286 5.79172 16.9416 5.79172 17.0118C5.79172 17.0839 5.78613 17.0959 5.75027 17.1011C5.7149 17.1063 5.70799 17.1202 5.7032 17.1964C5.69865 17.2687 5.6911 17.2857 5.66348 17.2857C5.63653 17.2857 5.62673 17.3054 5.61671 17.3797C5.60654 17.4551 5.59709 17.4737 5.56893 17.4737C5.54133 17.4737 5.53382 17.4873 5.53382 17.5371C5.53382 17.6538 5.51339 17.718 5.47625 17.718C5.44666 17.718 5.44171 17.7329 5.44171 17.8214C5.44171 17.91 5.43675 17.9248 5.40717 17.9248C5.36607 17.9248 5.3496 17.99 5.3496 18.1527C5.3496 18.248 5.34489 18.2632 5.31517 18.2632C5.27908 18.2632 5.25812 18.3369 5.2577 18.4652C5.25753 18.5137 5.24989 18.5263 5.22065 18.5263C5.18681 18.5263 5.18379 18.5389 5.18361 18.6814C5.18331 18.9016 5.16859 18.9774 5.12613 18.9774C5.0941 18.9774 5.0917 18.9963 5.0917 19.25C5.0917 19.5037 5.08931 19.5226 5.05727 19.5226C5.00444 19.5226 5 19.5919 5 20.4154C5 21.2389 5.00444 21.3083 5.05727 21.3083C5.08946 21.3083 5.0917 21.3278 5.0917 21.6077C5.0917 21.9039 5.09214 21.9072 5.13315 21.9132C5.17246 21.9189 5.17487 21.9286 5.17987 22.1024C5.1846 22.2666 5.18871 22.2857 5.21936 22.2857C5.2492 22.2857 5.25527 22.3074 5.26671 22.4549C5.27824 22.6036 5.28404 22.6241 5.31471 22.6241C5.34271 22.6241 5.34964 22.638 5.3498 22.6945C5.35019 22.8319 5.37034 22.906 5.40728 22.906C5.43631 22.906 5.44171 22.9207 5.44171 23C5.44171 23.0794 5.44709 23.094 5.47625 23.094C5.51431 23.094 5.53382 23.1585 5.53382 23.2843C5.53382 23.3432 5.54048 23.3571 5.56856 23.3571C5.59564 23.3571 5.60606 23.3758 5.61575 23.4417C5.62557 23.5085 5.63569 23.5263 5.66389 23.5263C5.69447 23.5263 5.69961 23.5398 5.69961 23.6203C5.69961 23.708 5.70268 23.7143 5.74566 23.7143C5.78864 23.7143 5.79172 23.7205 5.79172 23.8083C5.79172 23.8887 5.79685 23.9023 5.82743 23.9023C5.85564 23.9023 5.86575 23.92 5.87557 23.9868C5.88493 24.0505 5.89607 24.0714 5.92067 24.0714C5.94526 24.0714 5.9564 24.0924 5.96576 24.156C5.97527 24.2207 5.98608 24.2406 6.01181 24.2406C6.03753 24.2406 6.04834 24.2605 6.05787 24.3252C6.06769 24.392 6.0778 24.4098 6.106 24.4098C6.13341 24.4098 6.14172 24.4229 6.14172 24.4662C6.14172 24.5138 6.14889 24.5226 6.18778 24.5226C6.23007 24.5226 6.23383 24.5295 6.23383 24.6071C6.23383 24.6782 6.23952 24.6917 6.26938 24.6917C6.29224 24.6917 6.30705 24.7068 6.31083 24.734C6.31451 24.7605 6.33152 24.7785 6.35624 24.7821C6.38757 24.7866 6.39829 24.8051 6.40802 24.8714C6.41769 24.9372 6.42788 24.9549 6.45601 24.9549C6.48184 24.9549 6.49173 24.9679 6.49173 25.0019C6.49173 25.0395 6.50094 25.0489 6.53778 25.0489C6.57462 25.0489 6.58384 25.0583 6.58384 25.0959C6.58384 25.1298 6.59375 25.1429 6.61939 25.1429C6.64225 25.1429 6.65706 25.158 6.66084 25.1852C6.66452 25.2116 6.68152 25.2296 6.70625 25.2332C6.73758 25.2377 6.7483 25.2562 6.75803 25.3225C6.7677 25.3883 6.77789 25.406 6.80602 25.406C6.83184 25.406 6.84174 25.419 6.84174 25.453C6.84174 25.4906 6.85095 25.5 6.88779 25.5C6.921 25.5 6.93384 25.5101 6.93384 25.5363C6.93384 25.5596 6.94865 25.5747 6.97529 25.5786C7.00193 25.5824 7.01884 25.5997 7.02263 25.6269C7.02641 25.6541 7.04122 25.6692 7.06408 25.6692C7.08972 25.6692 7.09964 25.6823 7.09964 25.7162C7.09964 25.7538 7.10885 25.7632 7.14569 25.7632C7.18253 25.7632 7.19174 25.7726 7.19174 25.8101C7.19174 25.8477 7.20095 25.8571 7.2378 25.8571C7.27101 25.8571 7.28385 25.8673 7.28385 25.8934C7.28385 25.9167 7.29866 25.9319 7.3253 25.9357C7.35193 25.9396 7.36885 25.9568 7.37264 25.984C7.37642 26.0112 7.39123 26.0263 7.41409 26.0263C7.43973 26.0263 7.44964 26.0394 7.44964 26.0733C7.44964 26.1109 7.45885 26.1203 7.4957 26.1203C7.52898 26.1203 7.54175 26.1304 7.54175 26.1567C7.54175 26.1854 7.55912 26.1958 7.62361 26.2057C7.68853 26.2156 7.70666 26.2266 7.71112 26.2586C7.71463 26.2838 7.73228 26.3011 7.7582 26.3049C7.78484 26.3087 7.79965 26.3239 7.79965 26.3472C7.79965 26.3733 7.81249 26.3835 7.8457 26.3835C7.88254 26.3835 7.89176 26.3929 7.89176 26.4305C7.89176 26.468 7.90097 26.4774 7.93781 26.4774C7.9711 26.4774 7.98386 26.4875 7.98386 26.5139C7.98386 26.5426 8.00123 26.553 8.06573 26.5629C8.13064 26.5728 8.14877 26.5837 8.15323 26.6157C8.15675 26.6409 8.1744 26.6583 8.20031 26.662C8.22594 26.6657 8.24176 26.6811 8.24176 26.7022C8.24176 26.7283 8.26138 26.7393 8.32466 26.749C8.39013 26.759 8.40755 26.7694 8.40755 26.7981C8.40755 26.8245 8.42032 26.8346 8.45361 26.8346C8.48645 26.8346 8.49966 26.8448 8.49966 26.87C8.49966 26.8977 8.51799 26.9083 8.58256 26.9182C8.64635 26.9279 8.66545 26.9389 8.66545 26.9655C8.66545 26.9929 8.68489 27.003 8.75756 27.0132C8.83145 27.0235 8.84967 27.0332 8.84967 27.0619C8.84967 27.0876 8.86271 27.0977 8.89572 27.0977C8.92923 27.0977 8.94178 27.1078 8.94178 27.1347C8.94178 27.1648 8.95874 27.1739 9.03388 27.1841C9.10458 27.1937 9.12599 27.2042 9.12599 27.2294C9.12599 27.2647 9.19227 27.2857 9.3033 27.2857C9.35217 27.2857 9.36547 27.2934 9.36547 27.3215C9.36547 27.3503 9.38369 27.3599 9.45758 27.3703C9.53146 27.3807 9.54968 27.3903 9.54968 27.4191C9.54968 27.4495 9.56348 27.4549 9.64179 27.4549C9.72776 27.4549 9.7339 27.458 9.7339 27.5019C9.7339 27.5475 9.73758 27.5489 9.86285 27.5489C9.97665 27.5489 9.9918 27.553 9.9918 27.5841C9.9918 27.623 10.055 27.6429 10.1783 27.6429C10.2374 27.6429 10.2497 27.6493 10.2497 27.6805C10.2497 27.7113 10.262 27.7181 10.3188 27.7183C10.4534 27.7186 10.526 27.7392 10.526 27.7769C10.526 27.8086 10.5422 27.812 10.6935 27.812C10.8424 27.812 10.8621 27.816 10.8702 27.8476C10.8822 27.8944 10.9463 27.906 11.1915 27.906C11.3742 27.906 11.3918 27.9091 11.3918 27.9408C11.3918 27.9917 11.5395 28 12.4418 28C13.3442 28 13.4919 27.9917 13.4919 27.9408C13.4919 27.9086 13.5109 27.906 13.7498 27.906H14.0077V27.859C14.0077 27.8122 14.0083 27.812 14.1827 27.812C14.3413 27.812 14.3577 27.8087 14.3577 27.7769C14.3577 27.7363 14.4313 27.7186 14.6018 27.7183C14.6953 27.7181 14.7077 27.7137 14.7077 27.6805C14.7077 27.6493 14.72 27.6429 14.7791 27.6429C14.9024 27.6429 14.9656 27.623 14.9656 27.5841C14.9656 27.5544 14.9799 27.5489 15.0577 27.5489C15.1355 27.5489 15.1498 27.5434 15.1498 27.5136C15.1498 27.4749 15.2129 27.4549 15.335 27.4549C15.3937 27.4549 15.4061 27.448 15.411 27.4126C15.416 27.3765 15.4297 27.3695 15.5044 27.3646C15.5749 27.36 15.5919 27.3521 15.5919 27.3244C15.5919 27.298 15.6112 27.287 15.6748 27.2773C15.7403 27.2673 15.7577 27.257 15.7577 27.2282C15.7577 27.197 15.7709 27.1917 15.8498 27.1917C15.9358 27.1917 15.9419 27.1886 15.9419 27.1447C15.9419 27.1017 15.9487 27.0977 16.0235 27.0977C16.0941 27.0977 16.1059 27.092 16.111 27.0555C16.1159 27.0203 16.1301 27.0122 16.1952 27.0074C16.2575 27.0028 16.2735 26.9944 16.2735 26.9663C16.2735 26.9418 16.289 26.9292 16.3242 26.9251C16.3604 26.9209 16.3765 26.9072 16.3807 26.8769C16.3858 26.8403 16.3976 26.8346 16.4682 26.8346C16.543 26.8346 16.5498 26.8306 16.5498 26.7876C16.5498 26.75 16.559 26.7406 16.5959 26.7406C16.6287 26.7406 16.6419 26.7304 16.6419 26.7052C16.6419 26.6775 16.6603 26.6669 16.7248 26.657C16.7903 26.647 16.8077 26.6367 16.8077 26.6079C16.8077 26.5815 16.8205 26.5714 16.8538 26.5714C16.8906 26.5714 16.8998 26.562 16.8998 26.5244C16.8998 26.4868 16.909 26.4774 16.9459 26.4774C16.9792 26.4774 16.9919 26.4674 16.9919 26.441C16.9919 26.4123 17.0093 26.4019 17.0738 26.392C17.1387 26.3821 17.1568 26.3712 17.1613 26.3392C17.1648 26.314 17.1825 26.2966 17.2084 26.2929C17.235 26.289 17.2498 26.2739 17.2498 26.2506C17.2498 26.2244 17.2627 26.2143 17.2959 26.2143C17.3327 26.2143 17.3419 26.2049 17.3419 26.1673C17.3419 26.1297 17.3511 26.1203 17.388 26.1203C17.4248 26.1203 17.434 26.1109 17.434 26.0733C17.434 26.0389 17.4439 26.0263 17.4709 26.0263C17.4954 26.0263 17.5077 26.0138 17.5077 25.9887C17.5077 25.9611 17.52 25.9511 17.5538 25.9511C17.5906 25.9511 17.5998 25.9417 17.5998 25.9041C17.5998 25.8665 17.609 25.8571 17.6459 25.8571C17.6827 25.8571 17.6919 25.8477 17.6919 25.8101C17.6919 25.7726 17.7012 25.7632 17.738 25.7632C17.7718 25.7632 17.7841 25.7531 17.7841 25.7256C17.7841 25.7005 17.7963 25.688 17.8209 25.688C17.8479 25.688 17.8577 25.6754 17.8577 25.641C17.8577 25.6034 17.8669 25.594 17.9038 25.594C17.9406 25.594 17.9498 25.5846 17.9498 25.547C17.9498 25.5094 17.9591 25.5 17.9959 25.5C18.0327 25.5 18.042 25.4906 18.042 25.453C18.042 25.4191 18.0519 25.406 18.0775 25.406C18.1004 25.406 18.1152 25.3909 18.119 25.3637C18.1227 25.3365 18.1397 25.3193 18.1663 25.3154C18.1963 25.3111 18.2077 25.2968 18.2077 25.2637C18.2077 25.2275 18.2173 25.218 18.2538 25.218C18.2961 25.218 18.2999 25.2111 18.2999 25.1335C18.2999 25.0558 18.3036 25.0489 18.3459 25.0489C18.3827 25.0489 18.392 25.0395 18.392 25.0019C18.392 24.968 18.4019 24.9549 18.4275 24.9549C18.4504 24.9549 18.4652 24.9398 18.469 24.9126C18.4728 24.8854 18.4897 24.8682 18.5163 24.8643C18.5522 24.8591 18.5577 24.8471 18.5577 24.775C18.5577 24.6987 18.5616 24.6917 18.6038 24.6917C18.6406 24.6917 18.6499 24.6823 18.6499 24.6447C18.6499 24.6108 18.6597 24.5977 18.6856 24.5977C18.7138 24.5977 18.7239 24.58 18.7337 24.5132C18.7434 24.4473 18.7538 24.4286 18.7809 24.4286C18.8057 24.4286 18.8156 24.4151 18.8156 24.3816C18.8156 24.3443 18.8249 24.3346 18.8607 24.3346C18.9014 24.3346 18.9063 24.3259 18.9113 24.2453C18.9161 24.1691 18.923 24.1551 18.9584 24.15C18.9943 24.1448 18.9999 24.1328 18.9999 24.0607C18.9999 23.9844 19.0037 23.9774 19.0459 23.9774C19.0882 23.9774 19.092 23.9705 19.092 23.8929C19.092 23.8222 19.0978 23.8083 19.1271 23.8083C19.1552 23.8083 19.1647 23.7897 19.1749 23.7143C19.1849 23.64 19.1947 23.6203 19.2216 23.6203C19.2493 23.6203 19.2568 23.6033 19.2614 23.531C19.2661 23.4548 19.2731 23.4408 19.3084 23.4357C19.3464 23.4302 19.3499 23.4198 19.3499 23.3102C19.3499 23.2005 19.3533 23.1901 19.3913 23.1846C19.4267 23.1795 19.4336 23.1655 19.4384 23.0893C19.443 23.0153 19.4502 23 19.4798 23C19.5089 23 19.5157 22.9867 19.5159 22.9295C19.5163 22.7921 19.5364 22.718 19.5733 22.718C19.6031 22.718 19.6078 22.7029 19.6078 22.6076C19.6078 22.4449 19.6242 22.3797 19.6653 22.3797C19.6967 22.3797 19.6999 22.3632 19.6999 22.2011C19.6999 22.0392 19.7031 22.0226 19.7343 22.0226C19.7768 22.0226 19.7915 21.9467 19.7918 21.7265C19.792 21.5885 19.7957 21.5714 19.8259 21.5714C19.8574 21.5714 19.8607 21.5426 19.8719 21.1626C19.8786 20.9377 19.884 18.3874 19.8841 15.4953L19.8841 10.2368H19.967H20.0499V10.3201C20.0499 10.3922 20.0555 10.4042 20.0913 10.4094C20.118 10.4133 20.1349 10.4305 20.1387 10.4577C20.1425 10.4849 20.1573 10.5 20.1801 10.5C20.2058 10.5 20.2157 10.5131 20.2157 10.547C20.2157 10.5846 20.2249 10.594 20.2617 10.594C20.2986 10.594 20.3078 10.6034 20.3078 10.641C20.3078 10.6749 20.3177 10.688 20.3435 10.688C20.3717 10.688 20.3818 10.7058 20.3916 10.7726C20.4024 10.8456 20.4101 10.8571 20.448 10.8571C20.4826 10.8571 20.492 10.8671 20.492 10.9041C20.492 10.938 20.5019 10.9511 20.5276 10.9511C20.5504 10.9511 20.5652 10.9662 20.569 10.9934C20.5728 11.0206 20.5897 11.0379 20.6163 11.0417C20.643 11.0456 20.6578 11.0607 20.6578 11.084C20.6578 11.1102 20.6706 11.1203 20.7038 11.1203C20.7407 11.1203 20.7499 11.1297 20.7499 11.1673C20.7499 11.2049 20.7591 11.2143 20.7959 11.2143C20.8328 11.2143 20.842 11.2237 20.842 11.2613C20.842 11.2952 20.8519 11.3083 20.8776 11.3083C20.9004 11.3083 20.9152 11.3234 20.919 11.3506C20.9228 11.3777 20.9397 11.395 20.9663 11.3989C20.993 11.4027 21.0078 11.4178 21.0078 11.4412C21.0078 11.4673 21.0206 11.4774 21.0539 11.4774C21.0901 11.4774 21.0999 11.487 21.0999 11.5223C21.0999 11.5611 21.1112 11.5689 21.1828 11.5798C21.2483 11.5899 21.2657 11.6002 21.2657 11.629C21.2657 11.6553 21.2785 11.6654 21.3118 11.6654C21.3486 11.6654 21.3578 11.6748 21.3578 11.7124C21.3578 11.75 21.367 11.7594 21.4039 11.7594C21.4376 11.7594 21.4499 11.7694 21.4499 11.797C21.4499 11.8246 21.4622 11.8346 21.496 11.8346C21.5328 11.8346 21.542 11.844 21.542 11.8816C21.542 11.9247 21.5488 11.9286 21.6249 11.9286C21.701 11.9286 21.7078 11.9324 21.7078 11.9756C21.7078 12.0132 21.717 12.0226 21.7539 12.0226C21.7872 12.0226 21.7999 12.0326 21.7999 12.059C21.7999 12.0878 21.8173 12.0981 21.8828 12.1081C21.9452 12.1177 21.9657 12.129 21.9657 12.1541C21.9657 12.1792 21.9862 12.1906 22.0486 12.2001C22.1141 12.2102 22.1315 12.2205 22.1315 12.2493C22.1315 12.2772 22.1444 12.2857 22.1868 12.2857C22.2292 12.2857 22.242 12.2942 22.242 12.3222C22.242 12.3509 22.2595 12.3613 22.3249 12.3713C22.3877 12.3809 22.4078 12.3921 22.4078 12.4177C22.4078 12.4438 22.4284 12.4542 22.4999 12.4643C22.5738 12.4747 22.592 12.4843 22.592 12.513C22.592 12.5412 22.6053 12.5489 22.6542 12.5489C22.7686 12.5489 22.8315 12.5697 22.8315 12.6076C22.8315 12.6374 22.8458 12.6429 22.9236 12.6429C23.0096 12.6429 23.0157 12.646 23.0157 12.6898C23.0157 12.7355 23.0194 12.7368 23.1447 12.7368C23.2583 12.7368 23.2736 12.741 23.2736 12.772C23.2736 12.8097 23.3462 12.8302 23.4809 12.8306C23.5376 12.8308 23.55 12.8376 23.55 12.8684C23.55 12.9017 23.5622 12.906 23.6582 12.906C23.8176 12.906 23.8815 12.9228 23.8815 12.9648C23.8815 12.9973 23.8987 13 24.1013 13C24.3152 13 24.3212 13.0011 24.327 13.0423C24.3328 13.0845 24.3341 13.0846 24.7243 13.0897C25.1005 13.0945 25.1158 13.0962 25.1158 13.132C25.1158 13.1673 25.1289 13.1692 25.3829 13.1692C25.6377 13.1692 25.65 13.1674 25.65 13.1316C25.65 13.0966 25.6623 13.094 25.825 13.094H26V11.0569C26 9.93645 25.9948 8.99331 25.9885 8.961L25.977 8.90226L25.7628 8.90212C25.645 8.90205 25.4927 8.8966 25.4243 8.89C25.3197 8.87992 25.3 8.87248 25.3 8.84314C25.3 8.8116 25.2831 8.80827 25.1233 8.80827C24.9654 8.80827 24.9456 8.80447 24.9374 8.77269C24.9267 8.7309 24.8615 8.71428 24.7082 8.71428C24.6148 8.71428 24.6 8.70947 24.6 8.67915C24.6 8.64147 24.5274 8.6209 24.3927 8.62051C24.336 8.62034 24.3237 8.61357 24.3237 8.58271C24.3237 8.55254 24.3114 8.54511 24.2615 8.54511C24.1471 8.54511 24.0842 8.52427 24.0842 8.48637C24.0842 8.45667 24.0699 8.45113 23.9934 8.45113C23.9132 8.45113 23.9018 8.44617 23.8966 8.40883C23.8916 8.37274 23.8779 8.36569 23.8032 8.36081C23.7313 8.35611 23.7157 8.34868 23.7157 8.31917C23.7157 8.29026 23.6978 8.28081 23.6236 8.27079C23.5515 8.26101 23.5315 8.25094 23.5315 8.22423C23.5315 8.19756 23.5145 8.18887 23.4532 8.18434C23.3882 8.17955 23.374 8.17143 23.3691 8.13628C23.364 8.09979 23.3521 8.09398 23.2828 8.09398C23.2136 8.09398 23.2017 8.08818 23.1966 8.05169C23.1916 8.0156 23.1779 8.00855 23.1032 8.00366C23.0242 7.9985 23.0157 7.99348 23.0157 7.95197C23.0157 7.91549 23.0062 7.90601 22.9697 7.90601C22.9359 7.90601 22.9236 7.896 22.9236 7.86842C22.9236 7.83639 22.9113 7.83083 22.8407 7.83083C22.7646 7.83083 22.7578 7.82699 22.7578 7.78383C22.7578 7.74624 22.7486 7.73684 22.7118 7.73684C22.6749 7.73684 22.6657 7.72744 22.6657 7.68985C22.6657 7.64669 22.659 7.64286 22.5828 7.64286C22.5067 7.64286 22.4999 7.63902 22.4999 7.59586C22.4999 7.55827 22.4907 7.54887 22.4539 7.54887C22.4201 7.54887 22.4078 7.53885 22.4078 7.51128C22.4078 7.4837 22.3955 7.47368 22.3618 7.47368C22.3249 7.47368 22.3157 7.46429 22.3157 7.42669C22.3157 7.3891 22.3065 7.3797 22.2697 7.3797C22.2328 7.3797 22.2236 7.3703 22.2236 7.33271C22.2236 7.29511 22.2144 7.28571 22.1776 7.28571C22.1445 7.28571 22.1315 7.27558 22.1315 7.24977C22.1315 7.22257 22.1138 7.21079 22.0589 7.20132C22.0032 7.19171 21.985 7.17932 21.9806 7.14797C21.977 7.12224 21.9596 7.10492 21.9335 7.10113C21.9068 7.09727 21.892 7.08216 21.892 7.05883C21.892 7.03267 21.8792 7.02256 21.846 7.02256C21.8091 7.02256 21.7999 7.01316 21.7999 6.97556C21.7999 6.94167 21.79 6.92857 21.7644 6.92857C21.7415 6.92857 21.7267 6.91346 21.7229 6.88628C21.7192 6.85945 21.7022 6.84184 21.6765 6.8381C21.6441 6.8334 21.6336 6.81568 21.6238 6.74882C21.6132 6.67694 21.6054 6.66541 21.5675 6.66541C21.533 6.66541 21.5236 6.65541 21.5236 6.61842C21.5236 6.58397 21.5138 6.57143 21.4868 6.57143C21.4626 6.57143 21.4499 6.55889 21.4499 6.53515C21.4499 6.51182 21.4351 6.49671 21.4085 6.49286C21.3818 6.48898 21.3649 6.47173 21.3611 6.44455C21.3573 6.41737 21.3425 6.40226 21.3197 6.40226C21.294 6.40226 21.2841 6.38915 21.2841 6.35526C21.2841 6.31827 21.2748 6.30827 21.2402 6.30827C21.2022 6.30827 21.1945 6.29677 21.1838 6.22368C21.1741 6.15806 21.1636 6.1391 21.1368 6.1391C21.1129 6.1391 21.1006 6.12327 21.0965 6.08741C21.0924 6.05039 21.0789 6.034 21.0492 6.0297C21.0134 6.02451 21.0078 6.01248 21.0078 5.94041C21.0078 5.86412 21.0039 5.85714 20.9617 5.85714C20.9249 5.85714 20.9157 5.84774 20.9157 5.81015C20.9157 5.7757 20.9059 5.76316 20.8788 5.76316C20.8475 5.76316 20.842 5.75062 20.842 5.67857C20.842 5.60139 20.8381 5.59398 20.797 5.59398C20.7563 5.59398 20.7514 5.58532 20.7463 5.5047C20.7415 5.42851 20.7346 5.41453 20.6992 5.4094C20.6634 5.40421 20.6578 5.39218 20.6578 5.32011C20.6578 5.24381 20.6539 5.23684 20.6117 5.23684C20.5688 5.23684 20.5657 5.23058 20.5657 5.14286C20.5657 5.06141 20.5608 5.04887 20.5288 5.04887C20.4975 5.04887 20.492 5.03633 20.492 4.96429C20.492 4.8866 20.4882 4.8797 20.4459 4.8797C20.4012 4.8797 20.3999 4.87594 20.3999 4.74812C20.3999 4.6203 20.3986 4.61654 20.3538 4.61654C20.3091 4.61654 20.3078 4.61278 20.3078 4.48496C20.3078 4.36899 20.3037 4.35338 20.2734 4.35338C20.2364 4.35338 20.2163 4.27929 20.2159 4.14192C20.2157 4.08566 20.2087 4.07143 20.1812 4.07143C20.1511 4.07143 20.1451 4.0503 20.1338 3.90226C20.1223 3.75241 20.1168 3.73308 20.0853 3.73308C20.0523 3.73308 20.0499 3.71759 20.0499 3.50575C20.0499 3.29853 20.0468 3.27761 20.015 3.26914Z" fill="white"/>
</svg>
