<svg width="30" height="30" viewBox="0 0 30 30" fill="none" xmlns="http://www.w3.org/2000/svg">
<path fill-rule="evenodd" clip-rule="evenodd" d="M30 0H0V30H30V0ZM6.54151 6.53749C8.78586 4.29359 11.8287 3.03161 15.0023 3.02843C16.5752 3.02451 18.1332 3.33271 19.5861 3.93517C21.0391 4.53763 22.358 5.42238 23.4666 6.53817C24.5809 7.64783 25.4641 8.96752 26.0649 10.4208C26.6657 11.8742 26.9722 13.4322 26.9667 15.0048C26.9616 18.1775 25.6989 21.2187 23.4552 23.4618C21.2116 25.705 18.1702 26.9671 14.9975 26.9716H14.9951C12.8511 26.9731 10.7462 26.3977 8.90115 25.3057L8.46604 25.046L3.93463 26.2336L5.1438 21.8176L4.86014 21.3656C3.66298 19.4593 3.02834 17.2573 3.03075 14.9976C3.03456 11.8239 4.29716 8.78139 6.54151 6.53749ZM19.6131 21.8488C20.303 21.7454 21.7406 20.981 22.041 20.1396C22.3391 19.2982 22.3391 18.5795 22.2526 18.4304C22.1789 18.3083 22.0069 18.2253 21.7565 18.1045C21.6963 18.0754 21.6316 18.0442 21.5627 18.0097C21.2045 17.8294 19.4352 16.9616 19.1058 16.839C18.7741 16.7212 18.5361 16.6611 18.2957 17.0217C18.0553 17.3799 17.3654 18.1876 17.1563 18.4304C16.9447 18.6732 16.7356 18.6997 16.375 18.5218C16.3139 18.4906 16.2294 18.4538 16.1244 18.408C15.6143 18.1856 14.6211 17.7525 13.4806 16.7357C12.4133 15.7813 11.6921 14.601 11.4806 14.2428C11.2714 13.8822 11.4589 13.6875 11.6392 13.5096C11.7533 13.3938 11.8867 13.2309 12.0181 13.0706C12.0721 13.0046 12.1258 12.939 12.1777 12.8773C12.334 12.6964 12.3988 12.5629 12.4895 12.3762C12.5048 12.3446 12.5209 12.3115 12.5383 12.2764C12.6561 12.036 12.596 11.8244 12.5071 11.6465C12.4475 11.5258 12.1042 10.692 11.7937 9.93793C11.6407 9.56623 11.4956 9.21387 11.3964 8.97576C11.1388 8.35403 10.8774 8.35653 10.6673 8.35854C10.6402 8.3588 10.614 8.35905 10.5887 8.35795C10.3772 8.34833 10.1392 8.34593 9.89878 8.34593C9.71638 8.35034 9.53684 8.39233 9.37139 8.46926C9.20594 8.5462 9.05814 8.65642 8.93721 8.79306C8.91598 8.8163 8.89227 8.84166 8.86648 8.86924C8.49211 9.26957 7.67995 10.1381 7.67995 11.7956C7.67995 13.5385 8.93042 15.2255 9.13769 15.5052C9.14082 15.5094 9.14371 15.5133 9.14635 15.5169C9.15863 15.5332 9.18071 15.5648 9.21232 15.61C9.65125 16.2383 11.9275 19.4966 15.2956 20.9497C15.9651 21.2385 16.6496 21.4913 17.3462 21.707C18.0804 21.9307 18.8567 21.9792 19.6131 21.8488Z" fill="white"/>
</svg>
