<svg width="30" height="30" viewBox="0 0 30 30" fill="none" xmlns="http://www.w3.org/2000/svg">
<path d="M13.1998 23.5V23.6C12.8998 24 12.5998 24.3 12.1998 24.3C12.0998 24.3 11.8998 24.3 11.7998 24.1C11.6998 24 11.6998 23.9 11.5998 23.7V23.6V23.5C11.5998 23.4 11.5998 23.3 11.5998 23.1V18H10.7998V23.5C10.7998 24 10.7998 24.3 10.8998 24.5C10.8998 24.6 10.9998 24.7 11.0998 24.8C11.1998 24.9 11.2998 24.9 11.4998 24.9C11.8998 24.9 12.2998 24.7 12.7998 24.1L13.1998 23.6V24.3V24.8H13.9998V18.1H13.1998V23.5Z" fill="white" stroke="white" stroke-width="0.5"/>
<path d="M6 16.6H7.3H7.6V16.9V24.9H8.5V16.9V16.6H8.8H10.1V15.8H6V16.6Z" fill="white" stroke="white" stroke-width="0.5"/>
<path d="M18.5998 18.2999C18.4998 18.1999 18.2998 18.0999 18.0998 18.0999C17.6998 18.0999 17.2998 18.2999 16.8998 18.7999L16.7998 18.9999C16.9998 18.8999 17.1998 18.7999 17.3998 18.7999C17.6998 18.7999 17.8998 18.8999 17.9998 19.1999C18.0998 19.3999 18.1998 19.6999 18.1998 20.0999V23.1999C18.1998 23.4999 18.1998 23.7999 17.9998 24.0999C17.8998 24.2999 17.5998 24.4999 17.3998 24.4999C17.1998 24.4999 16.9998 24.3999 16.7998 24.2999L16.9998 24.4999C17.3998 24.9999 17.7998 25.1999 18.1998 25.1999C18.3998 25.1999 18.5998 25.0999 18.6998 24.9999C18.7998 24.8999 18.8998 24.6999 18.9998 24.4999C18.9998 24.0999 18.9998 23.6999 18.9998 22.9999V20.0999C18.9998 19.3999 18.9998 18.9999 18.8998 18.6999C18.7998 18.4999 18.6998 18.3999 18.5998 18.2999Z" fill="white" stroke="white" stroke-width="0.5"/>
<path d="M15.6997 24.9H16.4997V24.5V23.9V23.8V19.4V19.3V18.7V15.8H15.6997V24.9Z" fill="white" stroke="white" stroke-width="0.5"/>
<path d="M23.6 18.7999C23.3 18.3999 22.8 18.2 22.3 18.2C21.7 18.2 21.3 18.3999 20.9 18.7999C20.7 19.0999 20.5 19.5999 20.5 20.2999V22.7999C20.5 23.4999 20.6 23.9999 20.9 24.2999C21.2 24.6999 21.7 24.9 22.3 24.9C22.9 24.9 23.4 24.7 23.7 24.2C23.8 24 23.9 23.8 24 23.5C24 23.4 24 23.1 24 22.7H23.2C23.2 23.1 23.2 23.3 23.2 23.4C23.2 23.5999 23.1 23.8 22.9 23.9C22.7 23.9999 22.6 24.1 22.3 24.1C22 24.1 21.8 24 21.6 23.7C21.4 23.5 21.4 23.1999 21.4 22.7999V21.5V21.2999H21.6H24V20.1C24 19.6 23.8 19.0999 23.6 18.7999ZM23.2 20.7V21H23H21.7H21.5V20.7999V20.1C21.5 19.7 21.6 19.4 21.7 19.2C21.9 19 22.1 18.7999 22.4 18.7999C22.7 18.7999 22.9 18.9 23.1 19.2C23.2 19.4 23.3 19.7 23.3 20.1V20.7H23.2Z" fill="white" stroke="white" stroke-width="0.5"/>
<path d="M0.299805 0.199951V29.7H29.7998V0.199951H0.299805ZM17.4998 4.39995V4.09995H17.6998H18.9998H19.1998V4.29995V9.69995C19.1998 9.89995 19.1998 9.99995 19.1998 10.1V10.2C19.1998 10.3 19.1998 10.3 19.1998 10.3C19.2998 10.3 19.4998 10.2 19.7998 9.79995V4.39995V4.09995H19.9998H21.2998H21.4998V4.29995V7.99995V11.6V11.8H21.2998H19.9998V11.6V11.4C19.5998 11.8 19.1998 11.9 18.6998 11.9C18.4998 11.9 18.1998 11.9 17.9998 11.7C17.7998 11.6 17.6998 11.4 17.5998 11.2C17.4998 10.9 17.4998 10.6 17.4998 9.99995V4.39995ZM14.6998 3.99995C15.3998 3.99995 15.9998 4.29995 16.3998 4.79995C16.6998 5.19995 16.8998 5.89995 16.8998 6.69995V9.29995C16.8998 10.1 16.7998 10.7 16.3998 11.2C15.9998 11.8 15.3998 12 14.6998 12C13.9998 12 13.3998 11.7 12.9998 11.2C12.6998 10.8 12.4998 10.1 12.4998 9.29995V6.69995C12.4998 5.89995 12.5998 5.29995 12.9998 4.79995C13.3998 4.29995 13.9998 3.99995 14.6998 3.99995ZM7.6998 1.59995H9.1998H9.3998V1.79995L10.1998 4.69995L10.9998 1.79995V1.59995H11.1998H12.6998H12.9998V1.89995L11.1998 7.69995V11.6V11.8H10.9998H9.4998H9.2998V11.6V7.69995C9.0998 6.99995 8.7998 5.99995 8.3998 4.69995C8.1998 4.19995 8.0998 3.79995 7.8998 3.29995C7.6998 2.89995 7.5998 2.39995 7.3998 1.89995L7.2998 1.59995H7.6998ZM26.0998 20.5C26.0998 22.1 26.0998 23.9 25.6998 25.5C25.6998 25.6 25.6998 25.6 25.6998 25.7C25.4998 26.5 25.0998 27.1 24.3998 27.5C23.9998 27.7999 23.5998 28 23.0998 28C21.8998 28.1 20.5998 28.2 19.3998 28.2C18.3998 28.2 17.4998 28.2 16.4998 28.2C15.9998 28.2 15.4998 28.2 14.9998 28.2C14.4998 28.2 13.9998 28.2 13.4998 28.2C12.4998 28.2 11.4998 28.2 10.4998 28.1C9.2998 28.1 8.0998 28 6.7998 27.9C5.9998 27.7999 5.2998 27.4 4.7998 26.7999C4.5998 26.5 4.3998 26.1999 4.2998 25.9C4.2998 25.7999 4.1998 25.7 4.1998 25.6C4.1998 25.5 4.1998 25.5 4.1998 25.4C3.8998 23.7999 3.7998 22 3.7998 20.4C3.7998 19.4 3.7998 18.2999 3.8998 17.2999C3.9998 16.5999 3.9998 15.9 4.1998 15.2C4.4998 14 5.4998 13 6.7998 12.9C7.9998 12.8 9.1998 12.7 10.3998 12.7C11.8998 12.6 13.3998 12.6 14.8998 12.6C16.3998 12.6 17.8998 12.6 19.3998 12.7C20.5998 12.7 21.7998 12.8 22.9998 12.9C23.7998 13 24.4998 13.4 24.9998 14C25.2998 14.4 25.4998 14.8 25.5998 15.2C25.6998 15.6 25.7998 16 25.7998 16.4C26.0998 17.9 26.0998 19.2 26.0998 20.5Z" fill="white" stroke="white" stroke-width="0.5"/>
<path d="M14.6998 10.3C14.7998 10.3 14.8998 10.3 14.9998 10.2C15.0998 10.1 15.0998 9.90005 15.0998 9.60005V6.50005C15.0998 6.20005 15.0998 6.00005 14.9998 5.90005C14.8998 5.80005 14.8998 5.80005 14.6998 5.80005C14.4998 5.80005 14.4998 5.80005 14.3998 5.90005C14.2998 6.00005 14.2998 6.20005 14.2998 6.50005V9.60005C14.2998 9.90005 14.2998 10.1 14.3998 10.2C14.4998 10.3 14.5998 10.3 14.6998 10.3Z" fill="white" stroke="white" stroke-width="0.5"/>
</svg>
