<svg width="30" height="30" viewBox="0 0 30 30" fill="none" xmlns="http://www.w3.org/2000/svg">
<path d="M24.28 13.96H20.25V11.3933C20.25 10.8578 20.3969 10.3186 20.7172 9.91882C21.0308 9.52752 21.5283 9.24667 22.2867 9.24667H24.2817H24.5317V8.99667V4.655V4.40528L24.282 4.405L21.277 4.40167H21.2767C19.098 4.40167 17.4568 5.05129 16.3615 6.19636C15.2681 7.33935 14.75 8.94327 14.75 10.7917V13.9583H11.6667H11.4167V14.2083V18.3333V18.5833H11.6667H14.75V29.75H0.25V0.25H29.75V29.75H20.25V18.5833H23.3334H23.5325L23.577 18.3893L24.5237 14.2659L24.5939 13.96H24.28Z" fill="white" stroke="white" stroke-width="0.5"/>
</svg>
