<svg width="30" height="30" viewBox="0 0 30 30" fill="none" xmlns="http://www.w3.org/2000/svg">
<path d="M8.60303 15.1783C8.60303 11.6167 11.4911 8.72925 15.0462 8.72925C18.6077 8.72925 21.4956 11.6168 21.4956 15.1783C21.4956 18.739 18.608 21.6214 15.0462 21.6214C11.4908 21.6214 8.60303 18.7396 8.60303 15.1783Z" fill="white" stroke="white" stroke-width="0.5"/>
<path d="M0.250003 29.75L0.250004 29.653L0.250013 28.8317L0.250027 27.0833V2.91668L0.250025 1.16826L0.250024 0.346952L0.250024 0.250002L0.346971 0.250003L1.16827 0.25001L2.91669 0.25002H29.2265V2.0308e-05L30 3.32117e-05M0.250003 29.75L29.9984 3.55559e-05C29.9989 3.3994e-05 29.9995 3.32117e-05 30 3.32117e-05M0.250003 29.75H0.253106H0.257504H0.261934H0.266395H0.270889H0.275413H0.279969H0.284556H0.289175H0.293824H0.298503H0.303214H0.307954H0.312725H0.317526H0.322356H0.327217H0.332107H0.337026H0.341975H0.346953H0.35196H0.356995H0.362059H0.367152H0.372273H0.377422H0.3826H0.387805H0.393037H0.398298H0.403585H0.4089H0.414242H0.419611H0.425007H0.430429H0.435878H0.441353H0.446854H0.452381H0.457934H0.463512H0.469116H0.474746H0.4804H0.48608H0.491784H0.497513H0.503267H0.509045H0.514847H0.520674H0.526524H0.532398H0.538296H0.544217H0.550162H0.556129H0.56212H0.568133H0.57417H0.580228H0.586309H0.592412H0.598538H0.604685H0.610854H0.617044H0.623256H0.629489H0.635743H0.642018H0.648314H0.654631H0.660968H0.667325H0.673703H0.6801H0.686518H0.692955H0.699411H0.705887H0.712382H0.718897H0.72543H0.731982H0.738552H0.745141H0.751748H0.758373H0.765017H0.771678H0.778356H0.785053H0.791766H0.798497H0.805245H0.812009H0.81879H0.825588H0.832402H0.839233H0.846079H0.852942H0.85982H0.866714H0.873623H0.880548H0.887487H0.894442H0.901411H0.908396H0.915394H0.922407H0.929434H0.936476H0.943531H0.9506H0.957682H0.964778H0.971887H0.979009H0.986144H0.993292H1.00045H1.00763H1.01481H1.02201H1.02922H1.03644H1.04367H1.05092H1.05817H1.06544H1.07272H1.08001H1.08731H1.09462H1.10194H1.10927H1.11661H1.12396H1.13132H1.13869H1.14607H1.15346H1.16086H1.16827H1.17568H1.18311H1.19054H1.19798H1.20543H1.21289H1.22036H1.22783H1.23531H1.2428H1.2503H1.2578H1.26531H1.27283H1.28035H1.28788H1.29542H1.30296H1.31051H1.31806H1.32562H1.33319H1.34076H1.34834H1.35592H1.36351H1.3711H1.37869H1.38629H1.3939H1.40151H1.40912H1.41674H1.42436H1.43198H1.43961H1.44724H1.45487H1.46251H1.47015H1.47779H1.48543H1.49308H1.50073H1.50838H1.51603H1.52368H1.53134H1.539H1.54665H1.55431H1.56197H1.56963H1.57729H1.58495H1.59261H1.60028H1.60794H1.6156H1.62326H1.63092H1.63858H1.64624H1.65389H1.66155H1.6692H1.67686H1.68451H1.69216H1.69981H1.70745H1.7151H1.72274H1.73038H1.73801H1.74564H1.75327H1.7609H1.76852H1.77614H1.78376H1.79137H1.79898H1.80658H1.81418H1.82178H1.82937H1.83695H1.84453H1.85211H1.85968H1.86724H1.8748H1.88235H1.8899H1.89744H1.90498H1.91251H1.92003H1.92754H1.93505H1.94255H1.95005H1.95753H1.96501H1.97249H1.97995H1.98741H1.99485H2.00229H2.00973H2.01715H2.02456H2.03197H2.03936H2.04675H2.05413H2.0615H2.06885H2.0762H2.08354H2.09087H2.09819H2.1055H2.11279H2.12008H2.12735H2.13462H2.14187H2.14911H2.15634H2.16356H2.17077H2.17796H2.18514H2.19231H2.19947H2.20662H2.21375H2.22087H2.22797H2.23506H2.24214H2.24921H2.25626H2.2633H2.27032H2.27733H2.28433H2.29131H2.29827H2.30522H2.31216H2.31908H2.32598H2.33287H2.33975H2.34661H2.35345H2.36028H2.36709H2.37388H2.38066H2.38742H2.39416H2.40089H2.4076H2.41429H2.42096H2.42762H2.43426H2.44088H2.44748H2.45407H2.46063H2.46718H2.47371H2.48022H2.48671H2.49318H2.49963H2.50606H2.51247H2.51887H2.52524H2.53159H2.53792H2.54423H2.55053H2.5568H2.56304H2.56927H2.57548H2.58166H2.58783H2.59397H2.60009H2.60619H2.61226H2.61831H2.62434H2.63035H2.63634H2.6423H2.64824H2.65415H2.66004H2.66591H2.67176H2.67758H2.68337H2.68915H2.69489H2.70062H2.70631H2.71199H2.71764H2.72326H2.72886H2.73443H2.73998H2.7455H2.75099H2.75646H2.7619H2.76732H2.77271H2.77807H2.7834H2.78871H2.79399H2.79924H2.80447H2.80967H2.81484H2.81998H2.82509H2.83018H2.83524H2.84027H2.84527H2.85024H2.85518H2.86009H2.86497H2.86982H2.87465H2.87944H2.8842H2.88894H2.89364H2.89831H2.90295H2.90756H2.91214H2.91669H27.0833H27.0879H27.0925H27.0971H27.1017H27.1064H27.1111H27.1158H27.1206H27.1254H27.1302H27.1351H27.1399H27.1449H27.1498H27.1548H27.1598H27.1648H27.1699H27.1749H27.18H27.1852H27.1904H27.1956H27.2008H27.206H27.2113H27.2166H27.222H27.2273H27.2327H27.2381H27.2436H27.249H27.2545H27.2601H27.2656H27.2712H27.2768H27.2824H27.288H27.2937H27.2994H27.3051H27.3109H27.3167H27.3225H27.3283H27.3341H27.34H27.3459H27.3518H27.3577H27.3637H27.3697H27.3757H27.3817H27.3878H27.3938H27.3999H27.4061H27.4122H27.4184H27.4246H27.4308H27.437H27.4432H27.4495H27.4558H27.4621H27.4684H27.4748H27.4812H27.4876H27.494H27.5004H27.5069H27.5133H27.5198H27.5263H27.5329H27.5394H27.546H27.5525H27.5592H27.5658H27.5724H27.5791H27.5857H27.5924H27.5991H27.6059H27.6126H27.6194H27.6261H27.6329H27.6398H27.6466H27.6534H27.6603H27.6672H27.674H27.6809H27.6879H27.6948H27.7018H27.7087H27.7157H27.7227H27.7297H27.7367H27.7438H27.7508H27.7579H27.765H27.7721H27.7792H27.7863H27.7934H27.8006H27.8077H27.8149H27.8221H27.8293H27.8365H27.8437H27.8509H27.8582H27.8654H27.8727H27.8799H27.8872H27.8945H27.9018H27.9092H27.9165H27.9238H27.9312H27.9385H27.9459H27.9533H27.9607H27.9681H27.9755H27.9829H27.9903H27.9977H28.0052H28.0126H28.0201H28.0275H28.035H28.0425H28.05H28.0575H28.065H28.0725H28.08H28.0875H28.095H28.1026H28.1101H28.1177H28.1252H28.1328H28.1403H28.1479H28.1555H28.1631H28.1707H28.1782H28.1858H28.1934H28.201H28.2087H28.2163H28.2239H28.2315H28.2391H28.2467H28.2544H28.262H28.2696H28.2773H28.2849H28.2926H28.3002H28.3079H28.3155H28.3232H28.3308H28.3385H28.3461H28.3538H28.3614H28.3691H28.3768H28.3844H28.3921H28.3997H28.4074H28.4151H28.4227H28.4304H28.438H28.4457H28.4534H28.461H28.4687H28.4763H28.484H28.4916H28.4993H28.5069H28.5146H28.5222H28.5299H28.5375H28.5451H28.5528H28.5604H28.568H28.5757H28.5833H28.5909H28.5985H28.6061H28.6137H28.6213H28.6289H28.6365H28.6441H28.6517H28.6593H28.6668H28.6744H28.682H28.6895H28.6971H28.7046H28.7121H28.7197H28.7272H28.7347H28.7422H28.7497H28.7572H28.7647H28.7722H28.7797H28.7871H28.7946H28.802H28.8095H28.8169H28.8243H28.8318H28.8392H28.8466H28.8539H28.8613H28.8687H28.8761H28.8834H28.8907H28.8981H28.9054H28.9127H28.92H28.9273H28.9346H28.9418H28.9491H28.9563H28.9636H28.9708H28.978H28.9852H28.9924H28.9996H29.0067H29.0139H29.021H29.0281H29.0352H29.0423H29.0494H29.0565H29.0635H29.0706H29.0776H29.0846H29.0916H29.0986H29.1056H29.1125H29.1195H29.1264H29.1333H29.1402H29.1471H29.1539H29.1608H29.1676H29.1744H29.1812H29.188H29.1948H29.2015H29.2082H29.215H29.2217H29.2283H29.235H29.2416H29.2483H29.2549H29.2615H29.268H29.2746H29.2811H29.2876H29.2941H29.3006H29.3071H29.3135H29.3199H29.3263H29.3327H29.339H29.3454H29.3517H29.358H29.3643H29.3705H29.3768H29.383H29.3892H29.3953H29.4015H29.4076H29.4137H29.4198H29.4258H29.4319H29.4379H29.4439H29.4498H29.4558H29.4617H29.4676H29.4735H29.4793H29.4852H29.491H29.4967H29.5025H29.5082H29.5139H29.5196H29.5253H29.5309H29.5365H29.5421H29.5476H29.5532H29.5587H29.5641H29.5696H29.575H29.5804H29.5858H29.5911H29.5964H29.6017H29.607H29.6122H29.6174H29.6226H29.6277H29.6329H29.6379H29.643H29.648H29.6531H29.658H29.663H29.6679H29.6728H29.6776H29.6825H29.6873H29.6921H29.6968H29.7015H29.7062H29.7108H29.7154H29.72H29.7246H29.7291H29.7336H29.7381H29.7425H29.7469H29.75V29.7469V29.7425V29.7381V29.7336V29.7291V29.7246V29.72V29.7154V29.7108V29.7062V29.7015V29.6968V29.692V29.6873V29.6825V29.6776V29.6728V29.6679V29.663V29.658V29.653V29.648V29.643V29.6379V29.6328V29.6277V29.6226V29.6174V29.6122V29.607V29.6017V29.5964V29.5911V29.5858V29.5804V29.575V29.5696V29.5641V29.5586V29.5531V29.5476V29.5421V29.5365V29.5309V29.5253V29.5196V29.5139V29.5082V29.5025V29.4967V29.491V29.4852V29.4793V29.4735V29.4676V29.4617V29.4558V29.4498V29.4439V29.4379V29.4319V29.4258V29.4198V29.4137V29.4076V29.4015V29.3953V29.3891V29.383V29.3767V29.3705V29.3643V29.358V29.3517V29.3454V29.339V29.3327V29.3263V29.3199V29.3135V29.307V29.3006V29.2941V29.2876V29.2811V29.2746V29.268V29.2615V29.2549V29.2483V29.2416V29.235V29.2283V29.2216V29.215V29.2082V29.2015V29.1948V29.188V29.1812V29.1744V29.1676V29.1608V29.1539V29.1471V29.1402V29.1333V29.1264V29.1195V29.1125V29.1056V29.0986V29.0916V29.0846V29.0776V29.0706V29.0635V29.0565V29.0494V29.0423V29.0352V29.0281V29.021V29.0139V29.0067V28.9996V28.9924V28.9852V28.978V28.9708V28.9636V28.9563V28.9491V28.9418V28.9346V28.9273V28.92V28.9127V28.9054V28.8981V28.8907V28.8834V28.876V28.8687V28.8613V28.8539V28.8465V28.8392V28.8317V28.8243V28.8169V28.8095V28.802V28.7946V28.7871V28.7797V28.7722V28.7647V28.7572V28.7497V28.7422V28.7347V28.7272V28.7197V28.7121V28.7046V28.6971V28.6895V28.6819V28.6744V28.6668V28.6593V28.6517V28.6441V28.6365V28.6289V28.6213V28.6137V28.6061V28.5985V28.5909V28.5833V28.5757V28.568V28.5604V28.5528V28.5451V28.5375V28.5299V28.5222V28.5146V28.5069V28.4993V28.4916V28.484V28.4763V28.4687V28.461V28.4534V28.4457V28.438V28.4304V28.4227V28.4151V28.4074V28.3997V28.3921V28.3844V28.3768V28.3691V28.3614V28.3538V28.3461V28.3385V28.3308V28.3232V28.3155V28.3079V28.3002V28.2926V28.2849V28.2773V28.2696V28.262V28.2544V28.2467V28.2391V28.2315V28.2239V28.2163V28.2086V28.201V28.1934V28.1858V28.1782V28.1707V28.1631V28.1555V28.1479V28.1403V28.1328V28.1252V28.1177V28.1101V28.1026V28.095V28.0875V28.08V28.0725V28.065V28.0575V28.05V28.0425V28.035V28.0275V28.0201V28.0126V28.0052V27.9977V27.9903V27.9829V27.9755V27.9681V27.9607V27.9533V27.9459V27.9385V27.9312V27.9238V27.9165V27.9091V27.9018V27.8945V27.8872V27.8799V27.8727V27.8654V27.8581V27.8509V27.8437V27.8365V27.8293V27.8221V27.8149V27.8077V27.8005V27.7934V27.7863V27.7792V27.772V27.765V27.7579V27.7508V27.7438V27.7367V27.7297V27.7227V27.7157V27.7087V27.7017V27.6948V27.6879V27.6809V27.674V27.6671V27.6603V27.6534V27.6466V27.6397V27.6329V27.6261V27.6194V27.6126V27.6059V27.5991V27.5924V27.5857V27.5791V27.5724V27.5658V27.5591V27.5525V27.546V27.5394V27.5328V27.5263V27.5198V27.5133V27.5068V27.5004V27.494V27.4875V27.4812V27.4748V27.4684V27.4621V27.4558V27.4495V27.4432V27.437V27.4307V27.4245V27.4184V27.4122V27.4061V27.3999V27.3938V27.3878V27.3817V27.3757V27.3697V27.3637V27.3577V27.3518V27.3459V27.34V27.3341V27.3283V27.3224V27.3166V27.3109V27.3051V27.2994V27.2937V27.288V27.2824V27.2768V27.2712V27.2656V27.26V27.2545V27.249V27.2436V27.2381V27.2327V27.2273V27.222V27.2166V27.2113V27.206V27.2008V27.1956V27.1904V27.1852V27.18V27.1749V27.1698V27.1648V27.1598V27.1548V27.1498V27.1448V27.1399V27.1351V27.1302V27.1254V27.1206V27.1158V27.1111V27.1064V27.1017V27.0971V27.0925V27.0879V27.0833V0.773568L0.250003 29.75ZM30 3.32117e-05V0.773568V27.0833V30M30 3.32117e-05L29.75 3.32173e-05V4.89978e-05V6.14852e-05V6.67767e-05V7.26904e-05V7.92608e-05V8.65226e-05V9.45103e-05V0.000103258V0.000112802V0.000123175V0.000134412V0.000146548V0.000159617V0.000173654V0.000188694V0.000204771V0.00022192V0.000240175V0.000259571V0.000280143V0.000301924V0.00032495V0.000349256V0.000374875V0.000401842V0.000430193V0.000459961V0.000491181V0.000523888V0.000558116V0.0005939V0.000631275V0.000670274V0.000710933V0.000753287V0.000797369V0.000843214V0.000890857V0.000940333V0.000991676V0.00104492V0.0011001V0.00115725V0.00121641V0.00127761V0.00134088V0.00140626V0.00147379V0.00154349V0.0016154V0.00168957V0.00176601V0.00184478V0.00192589V0.00200939V0.00209531V0.00218368V0.00227455V0.00236794V0.00246388V0.00256242V0.00266359V0.00276742V0.00287395V0.00298321V0.00309523V0.00321006V0.00332772V0.00344825V0.00357169V0.00369807V0.00382742V0.00395977V0.00409517V0.00423365V0.00437524V0.00451998V0.0046679V0.00481903V0.00497341V0.00513108V0.00529207V0.00545641V0.00562414V0.0057953V0.00596991V0.00614801V0.00632964V0.00651484V0.00670363V0.00689605V0.00709213V0.00729192V0.00749544V0.00770273V0.00791382V0.00812875V0.00834755V0.00857027V0.00879692V0.00902755V0.00926219V0.00950087V0.00974364V0.00999052V0.0102416V0.0104968V0.0107562V0.0110199V0.0112879V0.0115602V0.0118368V0.0121179V0.0124033V0.0126933V0.0129877V0.0132867V0.0135902V0.0138983V0.0142111V0.0145285V0.0148506V0.0151775V0.0155091V0.0158455V0.0161868V0.016533V0.016884V0.0172401V0.0176011V0.0179671V0.0183381V0.0187143V0.0190955V0.0194819V0.0198735V0.0202703V0.0206724V0.0210798V0.0214925V0.0219105V0.022334V0.0227628V0.0231972V0.023637V0.0240824V0.0245333V0.0249898V0.025452V0.0259198V0.0263934V0.0268727V0.0273578V0.0278486V0.0283453V0.0288479V0.0293564V0.0298709V0.0303913V0.0309178V0.0314503V0.0319889V0.0325336V0.0330845V0.0336415V0.0342048V0.0347744V0.0353502V0.0359324V0.0365209V0.0371158V0.0377172V0.038325V0.0389393V0.0395602V0.0401876V0.0408216V0.0414623V0.0421097V0.0427637V0.0434245V0.0440921V0.0447665V0.0454477V0.0461358V0.0468309V0.0475329V0.0482418V0.0489578V0.0496809V0.050411V0.0511482V0.0518927V0.0526443V0.0534031V0.0541692V0.0549426V0.0557233V0.0565114V0.0573069V0.0581098V0.0589202V0.0597381V0.0605635V0.0613965V0.0622371V0.0630854V0.0639413V0.064805V0.0656764V0.0665555V0.0674425V0.0683374V0.0692401V0.0701507V0.0710693V0.0719959V0.0729305V0.0738732V0.0748239V0.0757828V0.0767498V0.0777251V0.0787085V0.0797003V0.0807003V0.0817087V0.0827254V0.0837505V0.0847841V0.0858261V0.0868767V0.0879358V0.0890034V0.0900797V0.0911646V0.0922583V0.0933606V0.0944716V0.0955915V0.0967202V0.0978577V0.0990041V0.100159V0.101324V0.102497V0.103679V0.104871V0.106071V0.107281V0.108499V0.109727V0.110965V0.112211V0.113467V0.114732V0.116006V0.11729V0.118583V0.119886V0.121199V0.12252V0.123852V0.125193V0.126543V0.127904V0.129274V0.130654V0.132043V0.133443V0.134852V0.136271V0.1377V0.139139V0.140588V0.142048V0.143517V0.144996V0.146485V0.147985V0.149495V0.151015V0.152545V0.154085V0.155636V0.157198V0.158769V0.160351V0.161944V0.163547V0.165161V0.166785V0.16842V0.170065V0.171721V0.173388V0.175066V0.176755V0.178454V0.180164V0.181885V0.183617V0.18536V0.187114V0.188879V0.190655V0.192442V0.19424V0.196049V0.19787V0.199702V0.201545V0.2034V0.205265V0.207142V0.209031V0.210931V0.212843V0.214766V0.2167V0.218646V0.220604V0.222573V0.224555V0.226547V0.228552V0.230568V0.232597V0.234637V0.236689V0.238753V0.240828V0.242916V0.245016V0.247128V0.249252V0.250025L30 30M30 30H27.0833H2.91669H0H30Z" fill="white" stroke="white" stroke-width="0.5"/>
</svg>
