<svg width="30" height="30" viewBox="0 0 30 30" fill="none" xmlns="http://www.w3.org/2000/svg">
<path d="M13.2004 23.6406L13.2463 23.5757V23.4963V18.228H14.0555V24.9487H13.2459V24.4108V23.7431L12.8073 24.2467C12.3064 24.8219 11.8752 25.0479 11.5013 25.0479C11.3232 25.0479 11.1946 25.0117 11.1031 24.9545C11.0154 24.8997 10.9435 24.8145 10.8949 24.6797C10.8359 24.4988 10.793 24.1871 10.793 23.6875V18.2275H11.6005V23.2942V23.2971C11.6005 23.448 11.6005 23.5664 11.6021 23.6522C11.6029 23.6954 11.6041 23.7337 11.6063 23.7655C11.6078 23.7864 11.6103 23.8192 11.6178 23.8524C11.6391 23.9797 11.6866 24.1088 11.785 24.2079C11.8921 24.3156 12.0298 24.3583 12.1692 24.3583C12.5631 24.3583 12.9031 24.0609 13.2004 23.6406Z" fill="white" stroke="white" stroke-width="0.5"/>
<path d="M7.5792 16.8715V16.6215H7.3292H6.04004V15.7573H10.1017V16.6215H8.7842H8.5342V16.8715V24.9487H7.5792V16.8715Z" fill="white" stroke="white" stroke-width="0.5"/>
<path d="M14.9625 10.1736C15.0304 10.0636 15.0805 9.86628 15.0805 9.54526V6.47521C15.0805 6.15462 15.0304 5.95794 14.9626 5.84847C14.9077 5.75978 14.8341 5.71436 14.7001 5.71436C14.5657 5.71436 14.492 5.75989 14.4369 5.84861C14.369 5.95806 14.3188 6.15468 14.3188 6.47521L14.3188 9.54511L14.9625 10.1736ZM14.9625 10.1736C14.9074 10.2628 14.8337 10.3082 14.7001 10.3082M14.9625 10.1736L14.7001 10.3082M14.7001 10.3082C14.5663 10.3082 14.4925 10.2627 14.4373 10.1734M14.7001 10.3082L14.4373 10.1734M14.4373 10.1734C14.3692 10.0633 14.3191 9.86598 14.3188 9.54526L14.4373 10.1734Z" fill="white" stroke="white" stroke-width="0.5"/>
<path d="M16.4962 18.6727V19.2797L16.4958 19.2801V19.3848V23.7864V23.89L16.4962 23.8904V24.4976V24.9485H15.6875V15.7573H16.4962V18.6727ZM17.3979 18.8169C17.1773 18.8169 16.9695 18.8945 16.7765 19.0322L16.9404 18.8303C17.3357 18.3431 17.7197 18.1394 18.0975 18.1394C18.3123 18.1394 18.4732 18.195 18.5965 18.2912C18.7212 18.3886 18.8284 18.544 18.9051 18.7792C18.9804 19.0325 19.0254 19.4776 19.0254 20.156V23.0314C19.0254 23.6913 18.9809 24.1418 18.9046 24.4135C18.8283 24.6453 18.7216 24.7992 18.597 24.896C18.4735 24.992 18.3124 25.0476 18.0975 25.0476C17.7368 25.0476 17.3516 24.8498 16.9408 24.3407L16.7842 24.1465C16.9752 24.2821 17.1805 24.3577 17.3979 24.3577C17.6738 24.3577 17.8988 24.2314 18.0394 23.992C18.1681 23.7731 18.2171 23.4764 18.2171 23.1339V20.0523C18.2171 19.71 18.1681 19.4115 18.0406 19.1905C17.9018 18.9497 17.6779 18.8169 17.3979 18.8169Z" fill="white" stroke="white" stroke-width="0.5"/>
<path d="M20.8968 18.7822L20.8968 18.7822C21.223 18.3547 21.6684 18.1396 22.2647 18.1396C22.8502 18.1396 23.293 18.3541 23.6075 18.7788L23.6075 18.7788L23.6085 18.7802C23.8335 19.0797 23.9634 19.5769 23.9634 20.3301V21.5759H21.5972H21.3472V21.8259V23.1059C21.3472 23.4591 21.4034 23.7683 21.5542 23.9956C21.7174 24.2415 21.968 24.3576 22.2647 24.3576C22.473 24.3576 22.6651 24.2996 22.8174 24.1617C22.9659 24.0274 23.0498 23.8411 23.0938 23.6352L23.094 23.6352L23.0958 23.6248C23.1093 23.5452 23.1222 23.3171 23.1263 22.9463H23.9629C23.9615 23.3223 23.947 23.5819 23.9367 23.7016C23.9004 23.9426 23.8105 24.1724 23.6736 24.374C23.3632 24.8216 22.9085 25.0476 22.2976 25.0476C21.6827 25.0476 21.2384 24.8313 20.9123 24.4059L20.9119 24.4053C20.6837 24.1094 20.5435 23.6056 20.5435 22.8605V20.3305C20.5435 19.5757 20.6692 19.0802 20.8968 18.7822ZM22.9051 20.9872H23.1551V20.7372V20.0692C23.1551 19.716 23.0985 19.408 22.9508 19.1815C22.7912 18.9368 22.5452 18.8176 22.253 18.8176C21.9595 18.8176 21.7123 18.936 21.5519 19.1812C21.4035 19.4079 21.3472 19.7162 21.3472 20.0692V20.7372V20.9872H21.5972H22.9051Z" fill="white" stroke="white" stroke-width="0.5"/>
<path d="M25.6949 15.3407L25.6949 15.3407C26.0763 17.0003 26.0763 18.8019 26.0762 20.4733V20.515C26.0762 20.515 26.0762 20.515 26.0762 20.515C26.0767 22.1971 26.0757 24.0161 25.6907 25.6886C25.4035 26.94 24.377 27.8693 23.1348 28.0077C20.4337 28.3095 17.7028 28.3109 15 28.3092M25.6949 15.3407L15.0045 12.7196C12.3014 12.7188 9.57047 12.7194 6.86976 13.022C5.62707 13.1608 4.60185 14.0898 4.31469 15.3408C3.92977 17.0135 3.92669 18.8311 3.92669 20.515V20.5298C3.92669 22.2074 3.92668 24.0209 4.31013 25.6886C4.5977 26.9394 5.62236 27.8688 6.86518 28.0077C9.56585 28.3095 12.2967 28.3109 15 28.3092M25.6949 15.3407C25.4073 14.0897 24.3813 13.1608 23.1395 13.022M25.6949 15.3407L23.1395 13.022M15 28.3092C15.0001 28.3092 15.0001 28.3092 15.0002 28.3092L15 28.0592L14.9999 28.3092C14.9999 28.3092 15 28.3092 15 28.3092ZM23.1395 13.022C20.4383 12.7194 17.7074 12.7188 15.0047 12.7196L23.1395 13.022ZM17.7417 4.11251H17.4917V4.36251V10.1317C17.4917 10.6548 17.5358 11.0364 17.6214 11.2952L17.6213 11.2952L17.6233 11.3007C17.7059 11.5322 17.8454 11.7161 18.0419 11.8389C18.2354 11.9598 18.4648 12.0096 18.7104 12.0096C19.1429 12.0096 19.5626 11.8167 19.9708 11.4666V11.6584V11.9084H20.2208H21.5433H21.7933V11.6584V8.01044V4.36251V4.11251H21.5433H20.2208H19.9708V4.36251V9.85806C19.708 10.2106 19.5112 10.3084 19.3858 10.3084C19.3659 10.3084 19.3563 10.3054 19.3535 10.3044C19.3521 10.3039 19.3517 10.3036 19.352 10.3038C19.3521 10.3038 19.3522 10.3039 19.3523 10.3039C19.3523 10.304 19.3523 10.304 19.3522 10.3038C19.3518 10.3035 19.3334 10.2844 19.3233 10.2136L19.3194 10.1857L19.3159 10.1766C19.3158 10.1753 19.3156 10.1738 19.3155 10.1722C19.3139 10.1542 19.3125 10.1266 19.3115 10.0861C19.3096 10.0054 19.3096 9.89102 19.3096 9.73419V4.36251V4.11251H19.0596H17.7417ZM9.45258 1.80215L9.40257 1.6175H9.21127H7.66877H7.31959L7.43211 1.94806C7.58662 2.402 7.74442 2.85718 7.90201 3.31173L7.90241 3.31289C8.06021 3.76805 8.21779 4.22259 8.3721 4.67598L8.37239 4.67679C8.83599 6.02364 9.12344 7.03187 9.25461 7.71688V11.6584V11.9084H9.50461H10.9713H11.2213V11.6584V7.73036L12.9739 1.93993L13.0715 1.6175H12.7346H11.2521H11.0588L11.0101 1.8046L10.2476 4.73755L9.45258 1.80215ZM0.250048 0.25L29.75 0.250008V29.7501H0.25L0.250048 0.25ZM14.7004 4.02418C13.9696 4.02418 13.3776 4.3061 12.9611 4.87233C12.6308 5.30664 12.4971 5.94398 12.4971 6.74085V9.2971C12.4971 10.0887 12.6306 10.7312 12.9614 11.1635C13.3775 11.7283 13.9694 12.01 14.7004 12.01C15.4358 12.01 16.0267 11.7281 16.4437 11.1629C16.7696 10.7313 16.9038 10.0896 16.9038 9.2971V6.74085C16.9038 5.943 16.7688 5.3067 16.4441 4.87316C16.0271 4.30629 15.4356 4.02418 14.7004 4.02418Z" fill="white" stroke="white" stroke-width="0.5"/>
</svg>
